<svg xmlns="http://www.w3.org/2000/svg" width="500" height="421">
	<g xmlns="http://www.w3.org/2000/svg">
		<path opacity=".1" fill="#6236ff"
			d="M377.85 155.097c-13.779-5.67-28.38-8.26-42-14.49-14.08-6.42-19.51-16.06-30.239-27.45-19.41-20.609-52.44-16.649-76.23-4.62-3.83 1.94-7.42 4.08-10.67 6.37-11.38 7.99-20.53 19.62-31.71 27.63-10.56 7.57-23.45 9.41-35.53 10.681-21.05 2.199-64.97 23.35-57.04 62.54 2.88 14.26 13.061 23.949 18.261 36.859 5.55 13.74 4.96 30.88 13.79 42.79 3.88 5.23 9.229 8.69 14.729 11.311 36.61 17.43 77.71 16.62 116.53 14.699 30.63-1.51 79.83 6.5 106.74-13.069 13.359-9.72 6.409-36.28 15.659-50.55 7.771-11.99 18.341-19.86 23.53-34.87 8.84-25.541-3.76-58.772-25.82-67.831zm-36.61 82.7v29.609l-26.5 15.87-25.55-15.3-.431.29-9.02 5.5v26.89l-26.5 15.87-26.5-15.87v-28.47l-6.83-3.82-1.01-.16-25.16 15.07-26.5-15.87v-29.609l26.5-16.271 22.99 14.11 10.01-5.51v-28.58l26.5-16.271 25.979 15.95 8.42-4.63.601-.58v-27.75l-10.29-5.811-24.71 14.79-25.431-15.22-.619.26-8.171 4.761 1.221.75v29.609l-26.5 15.87-26.5-15.87v-.2L138 214.137l-1-1.721 30.24-17.51v-27.109l26.5-16.271 23.34 14.33h.01l9.271-5.4.38-.159v-28.53l26.5-16.271 26.5 16.271v29.41l10.09 5.64 24.91-15.29 26.5 16.271v29.609l-26.5 15.87-25.641-15.35-.38.359-8.979 4.94v27.93l-26.5 15.87-25.4-15.21-9.149 5.03 1.55.95v28.6l.33.05 7.149 4 25.521-15.67 26.5 16.271v.38l7.979-4.87.521-.351v-28.409l26.5-16.271 21.02 12.91 16.46-9.01 2.04.71-16.62 9.45 3.598 2.211z" />
		<path fill="#2A94F4"
			d="M167.24 194.906v2.3L138 214.137l-1-1.721zM227.81 162.026l-.62.26-8.17 4.761-1.93-1.191 9.27-5.4.38-.159v1.09zM227.84 231.816l-9.15 5.031-1.96-1.21 10.01-5.51v1.029zM355.26 225.137l-17.62 10.45-1.88-1.15 17.46-10.01z" />
		<g fill="#6236ff">
			<path opacity=".8" d="M193.74 182.576v30.7l-26.5-15.87v-29.609l23.77 13.26 2.02 1.13h.01z" />
			<path d="M220.24 167.797v29.609l-26.5 15.87v-30.7z" />
			<path opacity=".6"
				d="M220.24 167.797l-26.5 14.779-.7-.389h-.01l-2.02-1.13-23.77-13.26 26.5-16.271 23.34 14.33h.01l1.93 1.191z" />
		</g>
		<g fill="#6236ff">
			<path opacity=".8" d="M314.74 182.576v30.7l-25.64-15.349-.86-.521v-29.609l6.85 3.819.01.011z" />
			<path d="M341.24 167.797v29.609l-26.5 15.87v-30.7z" />
			<path opacity=".6"
				d="M341.24 167.797l-26.5 14.779-19.64-10.949-.01-.011-6.85-3.819 1.59-.981 24.91-15.29z" />
		</g>
		<g fill="#6236ff">
			<path opacity=".8" d="M193.74 252.576v30.7l-26.5-15.87v-29.609z" />
			<path d="M220.24 237.797v29.609l-1.34.8-25.16 15.07v-30.7l21.5-11.989 2-1.12z" />
			<path opacity=".6"
				d="M220.24 237.797l-3 1.67-2 1.12-21.5 11.989-26.5-14.779 26.5-16.271 22.99 14.111 1.96 1.21z" />
		</g>
		<g fill="#6236ff">
			<path opacity=".8" d="M314.74 252.576v30.7l-25.55-15.299-.95-.571v-29.609l23.17 12.92 1.96 1.09z" />
			<path d="M341.24 237.797v29.609l-26.5 15.87v-30.7z" />
			<path opacity=".6"
				d="M341.24 237.797l-26.5 14.779-1.37-.769-1.96-1.09-23.17-12.92 26.5-16.271 21.02 12.911 1.88 1.15z" />
		</g>
		<path opacity=".8" fill="#6236ff" d="M253.24 146.547v30.699l-25.43-15.22-1.07-.639v-29.62z" />
		<path fill="#2A94F4" d="M289.83 166.816l-1.59.981v.47l-10.29-5.811 1.79-1.069v-.21z" />
		<path fill="#6236ff" d="M279.74 131.767v29.62l-1.79 1.069-24.71 14.79v-30.699z" />
		<path opacity=".6" fill="#6236ff" d="M279.74 131.767l-26.5 14.78-26.5-14.78 26.5-16.271z" />
		<g>
			<path opacity=".8" fill="#6236ff" d="M253.24 216.326v30.7l-25.4-15.21-1.1-.66v-29.609l25.79 14.38z" />
			<path fill="#6236ff" d="M279.74 201.547v29.609l-26.5 15.87v-30.7z" />
			<path fill="#2A94F4" d="M289.1 197.927l-.38.359-8.98 4.941v-1.68l-.52-.32 8.42-4.63.6-.58v1.389z" />
			<path opacity=".6" fill="#6236ff"
				d="M279.74 201.547l-26.5 14.779-.71-.399-25.79-14.38 26.5-16.271 25.98 15.951z" />
		</g>
		<g>
			<path opacity=".8" fill="#6236ff" d="M253.24 285.826v30.7l-26.5-15.87v-29.609l8.21 4.58.03.01z" />
			<path fill="#2A94F4" d="M289.19 267.977l-.43.29-9.02 5.5v-2.34l7.98-4.87.52-.351v1.2z" />
			<path fill="#6236ff" d="M279.74 271.047v29.609l-26.5 15.87v-30.7l4.01-2.239 2.32-1.29z" />
			<path fill="#2A94F4" d="M227.72 270.446l-.98.601v1.14l-6.83-3.821-1.01-.16 1.34-.8v-1.01l.33.05z" />
			<path opacity=".6" fill="#6236ff"
				d="M279.74 271.047l-20.17 11.25-2.32 1.29-4.01 2.239-18.26-10.189-.03-.01-8.21-4.58.98-.601 25.52-15.67z" />
		</g>
		<circle fill="#2A94F4" cx="140.25" cy="211.276" r="7.25" />
		<circle fill="#2A94F4" cx="351.934" cy="225.541" r="7.25" />
		<g>
			<path fill="#0B4870"
				d="M123.497 220.303s-13.889-1.963-14.923 30.61c-.518 6.204 0 9.102 0 9.102l9.075-.619s1.458-39.61 5.848-39.093z" />
			<path fill="#2A94F4"
				d="M148.928 358.295s3.354 4.518 2.896 5.233c-.461.716-3.989.817-6.137 0-2.147-.819-2.198-6.111-3.169-8.386-.408-.952.463-3.763 1.688-3.968 1.223-.202 2.554.396 2.554.396s-1.271 3.204 2.168 6.725z" />
			<path fill="#EEBEA7"
				d="M146.782 351.535s.704 1.922.963 3.758c.214 1.523 2.391 4.758 2.288 5.168-.102.407-2.863.779-3.988-.276-1.125-1.054-1.85-4.121-2.097-5.956-.231-1.708-.522-2.553-.522-2.553s2.281-1.266 3.356-.141z" />
			<path fill="#2A94F4"
				d="M119.726 358.37s3.234 4.442 2.773 5.158-3.987.817-6.135 0c-2.148-.819-2.2-6.111-3.171-8.386-.407-.952.465-3.763 1.688-3.968 1.224-.202 2.658.438 2.658.438s-1.252 3.236 2.187 6.758z" />
			<path fill="#EEBEA7"
				d="M117.539 351.613s.256 2.097.666 3.58c.408 1.483 2.606 4.857 2.505 5.268-.103.407-2.863.779-3.989-.276-1.124-1.054-1.994-4.106-2.096-5.956-.103-1.848.256-3.054.256-3.054s1.585-.687 2.658.438z" />
			<path fill="#2A94F4" d="M142.428 354.745v4.729h.613v-3.656zM113.104 354.745v4.729h.613v-3.656z" />
			<path fill="#6236ff"
				d="M129.969 243.408s2.639.828 4.144 2.898c1.507 2.07 1.742 4.963 1.81 6.443s.471 7.197.471 7.197l-4.473 1.255-1.952-17.793z" />
			<path fill="#0B4870"
				d="M133.701 278.082s2.877 13.394 3.539 16.766c.661 3.371 2.512 19.703 2.711 22.48.199 2.775 3.004 13.239 2.872 14.232-.132.99 4.159 20.913 4.159 20.913s-1.465 1.181-3.011.107c-.795-.553-9.417-18.651-9.417-23.61 0-6.854-5.068-15.803-5.723-17.336-6.075-14.247-4.879-18.604-5.673-19.528s-.862.573-1.325 2.622c-.463 2.05-1.454 19.769-2.049 22.018-.595 2.247-.133 9.851-.463 13.688-.331 3.834-1.783 21.18-1.783 21.18s-1.125 1.762-2.701.047c-.339-.37-2.723-19.324-2.789-23.886-.066-4.562-.136-10.854-.264-12.827-1.226-18.905-4.236-21.605.505-34.986 8.88-25.052 21.412-1.88 21.412-1.88z" />
			<path fill="#6236ff"
				d="M125.375 241.721s3.545 1.477 4.594 1.688c1.049.21 4.596 5.447 5.31 7.377s0 4.826-1.469 8.226c-1.47 3.399-.085 4.533-.755 7.933-.672 3.399 1.496 10.646 1.621 12.536s-19.73 2.194-23.632-1.247c0 0 3.921-5.876 4.425-6.715.504-.84.086-5.415-.376-6.59-.462-1.174-3.535-11.167-3.535-11.167s-2.514-7.675-.243-9.438c1.973-1.532 7.348-2.078 8.313-2.414.966-.337 3.773-.482 5.747-.189z" />
			<path fill="#EEBEA7"
				d="M126.815 238.233s-.081.758-.18 1.805c-.042.465-.09.986-.132 1.522-.123 1.528-.224 3.18-.165 4.021 0 0-3.14 3.147-6.711-3.672 0 0 1.503-2.812.371-6.642-1.13-3.829 6.817 2.966 6.817 2.966z" />
			<path fill="#EEBEA7"
				d="M127.887 220.818s7.041 2.211 3.22 14.361c-3.822 12.15-13.438-1.407-12.432-8.811 1.005-7.401 9.212-5.55 9.212-5.55z" />
			<path fill="#0B4870"
				d="M131.825 227.907s-3.499 3.433-9.353 3.861c0 0-2.25 2.639-2.424 3.674 0 0-6.125-10.23 1.199-14.24 7.76-4.249 12.939 4.506 10.578 6.705z" />
			<path fill="#EEBEA7"
				d="M122.427 231.699c-.045-.883-.59-2.896-1.904-2.333-1.313.563.081 4.662.953 4.41 0 0 1.058.017.951-2.077z" />
			<path fill="#A77860"
				d="M126.636 240.038c-.042.465-.09.986-.132 1.522h-.001c-4.071-2.008-4.694-4.907-4.713-4.996 2.901 3.748 4.846 3.474 4.846 3.474z" />
			<path fill="#1D3B54" d="M135.646 252.665s.192 4.278-.767 6.73l-.881-.458c0 .001 1.631-4.279 1.648-6.272z" />
			<path fill="#EEA886"
				d="M120.374 266.576s1.625-1.076 1.88-1.234c.252-.156 1.14-.105 2.054.184.888.279 1.887.666 2.164.821.144.081.287.108.225.527-.062.419-.345.739-.345.739s.165.554-.213.922c0 0 .132.528-.367.876 0 0 .115.519-.269.741 0 0-.831.113-1.144.046-.445-.094-2.769-.628-4.399-1.058 0 .001-.675-.401.414-2.564z" />
			<path fill="#EEA886"
				d="M125.979 266.215s4.212.924 4.159 1.25c-.075.475-1.118.648-4.316-.231-3.109-.857.157-1.019.157-1.019z" />
			<path fill="#6236ff"
				d="M115.601 243.615c-.955-.578-4.144-.514-5.39 2.479-1.246 2.993-2.264 6.4-3.137 7.965-.874 1.562-3.842 8.705-2.961 9.562.882.856 2.693 1.878 5.42 2.519 2.814.663 10.977 3.704 10.977 3.704l1.044-4.421s-3.59-1.712-5.662-2.544c-1.844-.738-1.616-.934-4.656-2.01 0 0 1.746-4.445 2.53-5.635.785-1.185 6.133-9.017 1.835-11.619z" />
			<path fill="#D3D3D3"
				d="M126.715 274.107l10.923-.882a1.548 1.548 0 001.194-.729l11.321-18.365c.633-1.025-.097-2.348-1.302-2.36l-11.704-.124a1.545 1.545 0 00-1.377.809l-10.541 19.369c-.587 1.081.259 2.382 1.486 2.282z" />
			<path fill="#EEA886"
				d="M142.01 267.357s.687-.639 1.299-1.531 2.616-4.303 2.432-4.518c-.183-.214-3.156-.286-3.694.199-.539.484.531.676.531.676s-1.627.166-1.511.626c.117.46 1.095.331 1.095.331s-1.308.252-1.108.654c.196.403.825.398.825.398s-1.158.146-1.016.586c.145.44 1.979.855 1.733 1.222-.245.366-.586 1.357-.586 1.357z" />
			<path fill="#EEBEA7"
				d="M119.108 242.037s3.944 6.423 7.073 6.346c3.127-.074.993-5.938.993-5.938s-2.401-1.92-8.066-.408z" />
			<ellipse transform="rotate(44.992 138.38 262.293)" fill="#F7F7F7" cx="138.378" cy="262.313" rx="1.803"
				ry="2.706" />
		</g>
		<g>
			<path fill="#0B4870"
				d="M393.579 354.217s1.615 1.151 2.51 1.959c.895.807 2.111 1.685 2.855 3.746.756 2.085 1.542 3.589-.477 3.712-2.019.124-7.088-1.408-7.391-3.257-.298-1.829-2.668-1.613-2.978-2.915-.31-1.303.104-2.905.104-2.905l5.377-.34z" />
			<path fill="#EEA886" d="M393.31 352.701l.27 1.516s-.831 1.537-5.375.34l.232-1.491 4.873-.365z" />
			<path fill="#0B4870"
				d="M364.579 354.217s-1.615 1.151-2.51 1.959c-.895.807-2.11 1.685-2.856 3.746-.755 2.085-1.585 3.459.434 3.582 2.019.124 7.132-1.278 7.434-3.127.299-1.829 2.67-1.613 2.979-2.915.31-1.303-.104-2.905-.104-2.905l-5.377-.34z" />
			<path fill="#EEA886" d="M364.849 352.701l-.27 1.516s.83 1.537 5.375.34l-.234-1.491-4.871-.365z" />
			<path fill="#D3D3D3"
				d="M362.909 317.422c0 3.325 1.317 34.959 1.317 34.959.333 1.108 4.837 1.053 5.945.5 1.11-.556.917-31.676 1.122-35.029.204-3.355 2.898-28.031 3.87-27.919.974.109 6.471 23.354 7.247 25.904.775 2.55 5.249 37.024 5.249 37.024 3.792 1.317 6.251 0 6.251 0s-1.449-34.753-1.451-38.879c-.001-1.531-.453-2.691-.887-10.833-.33-6.207-2.057-18.924-3.213-27.675-.043-.313-.081-.611-.119-.897a886.492 886.492 0 00-.479-3.555c-.035-.261-.055-.397-.055-.397a12.061 12.061 0 00-.977-.398c-8.121-2.918-23.783.171-23.783.171l-.027.222-.095.809-.379 3.254c0 .011-.002.02-.003.029l-.015.123c-.546 4.744-1.249 6.576-1.245 12.416.003 1.113 1.727 26.844 1.727 30.171z" />
			<path fill="#0B4870"
				d="M349.515 258.324c.846 2.492 8.457 1.872 14.309.812.014-.001.027-.004.039-.006a50.257 50.257 0 01-.066 1.941c-.123 2.356-.385 4.543-.513 5.312-.164.986-1.194 8.922-1.487 12.283-.069.791 12.456 2.09 17.283 1.828 6.129-.333 9.697-1.869 9.697-1.869s-2.023-14.908-2.07-16.357a11.4 11.4 0 01.047-1.082c2.65-.324 5.712-.766 7.48-1.241 7.707-2.083 6.918-5.983 6.863-6.476-.151-1.339-2.365-6.96-4.644-11.406-2.235-4.361-3.816-9.498-7.552-10.43-2.01-.502-9.424-2.968-9.424-2.968l-8.151-.062s-5.251 1.302-7.309 2.331c-2.059 1.028-6.085.671-7.862 6.356-.328 1.047-7.517 18.458-6.64 21.034zm37.791-2.088c.342-2.479.773-4.925 1.135-5.698.75-1.591 1.265-5.939 1.265-5.939s3.86 5.991 4.428 7.33c.517 1.222-.649 1.872-2.653 2.867-.677.337-2.359.888-4.175 1.44zm-29.863-4.979c.392-1.043 3.52-7.062 3.52-7.062s1.488 6.256 2.328 9.72c-2.44.122-4.882.174-5.937-.024-.824-.157-.609-.776.089-2.634z" />
			<path fill="#2A94F4"
				d="M370.701 228.77l.044-.012c.057-.019 5.491-1.791 8.857-.166l.041.019-4.954 7.933-3.988-7.774zm8.825-.124c-3.177-1.499-8.181.007-8.71.174" />
			<path fill="#F1B99E"
				d="M376.392 208.018s6.402 1.009 5.428 11.022c-.976 10.015-6.625 9.193-7.002 9.182-.378-.009-5.671.185-6.084-12.043-.001 0-.181-9.038 7.658-8.161z" />
			<path fill="#F1B99E"
				d="M379.38 223.366s-.193 4.347.204 5.237c.397.893-5.36 3.383-8.826.19 0 0 .936-4.33.703-5.917-.232-1.587 7.919.49 7.919.49z" />
			<path fill="#EEA886"
				d="M381.917 216.213s.701-.748.958.008c.257.758-.957 4.138-.999 4.295 0 0-.129.295-.296.135-.169-.163.337-4.438.337-4.438zM368.906 216.084s-.687-.762-.958-.007c-.272.752.865 4.153.917 4.314 0 0 .121.296.292.137.173-.158-.251-4.444-.251-4.444z" />
			<path fill="#6236ff"
				d="M381.915 217.748l-.917 1.225s.026-2.686-.12-3.105c-.148-.422-.373-1.708-.496-2.013-.122-.303-2.709 6.319-11.648 2.324 0 0 1.614.047 1.159.219s-.232 3.145-.232 3.145l-.752-.849s-1.153-7.705-.868-8.509c.284-.801 1.191-5.63 10.93-2.763 0 0 3.404.148 3.645 1.452.295 1.618-.701 8.874-.701 8.874z" />
			<path fill="#A77860"
				d="M371.448 226.397s1.442 1.846 3.723 1.846c1.501 0 2.682-.523 4.178-1.979 0 0-.756 2.869-4.167 3.126 0 0-2.606.166-3.734-2.993z" />
			<path fill="#EEA886"
				d="M369.477 253.89s.593.025 1.264-.645c.671-.669 2.785-.695 3.353 0 .567.697.749 3.019.749 3.019s-4.387.93-5.365.901c-.982-.024-.001-3.275-.001-3.275zM379.956 256.676s-1.145-1.992-1.332-2.546c-.189-.551-1.635-.401-1.022.87a161.23 161.23 0 001.015 2.075l1.339-.399z" />
			<path fill="#FFF"
				d="M377.71 259.167h-4.26c-.545 0-.996-.425-1.023-.969l-.495-9.307a1.024 1.024 0 011.015-1.079l5.1-.041a1.023 1.023 0 011.032 1.062l-.345 9.349c-.019.55-.471.985-1.024.985z" />
			<path fill="#EEA886"
				d="M380.157 257.182s.041-.876-1.666-1.607c-2.271-.972-5.284-1.932-5.781-1.629-.714.43-.314.971 1.11 1.376 1.427.407 1.897.536 1.897.536s-2.764-.149-3.367.205c-.604.355-.607 1.117-.151 1.221.456.109 1.523.141 1.523.141s-1.166.092-1.264.567c-.072.35-.095.847 1.021 1.009 0 0-.718.861.428 1.348 1.147.487 3.2.892 4.229 1.019 2.14.261 6.171-.438 6.171-.438l-1.35-3.013s-1.146.343-1.919.038c-1.003-.393-.881-.773-.881-.773z" />
		</g>
	</g>
</svg>