<svg xmlns="http://www.w3.org/2000/svg" viewBox="0 0 1200 1200">
	<g xmlns="http://www.w3.org/2000/svg">
		<path fill="#6236ff"
			d="M1034.705 454.705c60.844 200.36-112.68 411.05-303.925 471.763-192.511 61.114-451.377-14.375-517.551-205.673-69.273-200.258 105.526-432.297 313.157-491.233 190.768-54.149 448.088 26.804 508.319 225.143z" />
		<path opacity=".54" fill="#FFF"
			d="M1034.705 454.705c60.844 200.36-112.68 411.05-303.925 471.763-192.511 61.114-451.377-14.375-517.551-205.673-69.273-200.258 105.526-432.297 313.157-491.233 190.768-54.149 448.088 26.804 508.319 225.143z" />
	</g>
	<g xmlns="http://www.w3.org/2000/svg">
		<path fill="#0E538C"
			d="M756.057 956.314c.531 2.602.896 6.635-1.132 10.258-2.233 3.99-5.962 4.973-16.601 8.422-15.05 4.879-18.997 6.295-25.383 6.205-3.796-.054-10.259-.304-11.282-3.385-.825-2.485 2.081-6.276 6.957-9.401 8.01-4.033 18.893-8.066 26.904-12.099" />
		<path fill="#F4B99F"
			d="M755.049 956.189h-18.423l-10.062-233.106h38.547c.882 30.384.803 62.788-.643 96.98-1.695 40.089-5.058 101.44-9.419 136.126zM807.224 956.189h-18.423l-10.062-233.106h38.547c.882 30.384.803 62.788-.643 96.98-1.695 40.089-5.058 101.44-9.419 136.126z" />
		<path fill="#0E538C"
			d="M710.962 306.831c-1.412 1.665-12.226 14.785-11.912 32.533.265 14.97 8.287 35.586 6.18 47.35-1.281 7.155-3.045 8.89-6.593 18.212-4.17 10.957-14.83 38.97-9.477 59.491 6.712 25.734 39.306 42.375 65.515 45.731 42.123 5.395 88.952-20.811 91.886-47.755 2.541-23.336-29.631-30.831-32.552-69.204-1.257-16.513 4.138-22.519.412-44.113-1.454-8.424-3.94-25.094-14.834-38.447-15.068-18.47-38.363-21.302-46.722-21.827-.716-.045-1.408-.095-2.381-.114-15.266-.308-30.301 7.27-39.522 18.143z" />
		<path fill="#F4B99F"
			d="M718.891 436.444c-9.31-1.078-17.542 6.06-17.792 15.429l-2.783 104.266c-.107 4.013 3.702 7.575 8.723 8.156 5.186.601 9.806-2.186 10.416-6.282l15.387-103.364c1.328-8.92-4.992-17.168-13.951-18.205z" />
		<path fill="#F4B99F"
			d="M702.259 547.941l-77.315 67.722 6.874 9.098 82.42-61.453c2.926-2.182 2.659-7.458-.596-11.766-3.358-4.445-8.546-6.086-11.383-3.601zM741.106 389.882l2.917 33.619h35.926l2.917-73.677z" />
		<path fill="#F4B99F"
			d="M780.097 419.767c36.183 9.694 51.899 23.361 51.899 23.361-64.088 35.395-127.515 0-127.515 0 8.589-7.787 38.984-23.361 38.984-23.361h36.632z" />
		<path fill="#6236ff"
			d="M707.696 497.682c4.632 12.194 10.194 12.616 17.145 27.86a88.112 88.112 0 016.482 20.694h81.802c-.434-8.593-.419-17.91.298-27.837 2.226-30.8 10.41-56.351 18.574-75.272a161.508 161.508 0 00-39.442-19.626s-31.262 30.843-56.185 0c0 0-21.561 9.092-26.919 15.812a119.729 119.729 0 00-4.293 22.822c-1.062 11.939-2.08 23.391 2.538 35.547z" />
		<path fill="#0E538C"
			d="M731.323 546.236s-27.913 166.893-66.489 239.396c0 0 30.109 13.68 66.489 0 0 0 61.026 23.256 100.673-1.368 0 0 45.005 1.368 61.079-10.944 0 0-28.118-103.229-79.95-227.084h-81.802z" />
		<path fill="#F4B99F"
			d="M625.569 615.43s-12.864 2.638-18.436 14.509c-5.572 11.87 6.564 8.641 11.167.322s13.817 1.216 16.546-7.452c0 0 .602-5.97-9.277-7.379z" />
		<circle fill="#6236ff" cx="516.921" cy="964.859" r="13.601" />
		<circle fill="#6236ff" cx="516.921" cy="964.859" r="13.601" />
		<circle opacity=".1" cx="516.921" cy="964.859" r="9.617" />
		<circle opacity=".11" cx="516.921" cy="964.859" r="13.601" />
		<circle fill="#6236ff" cx="398.249" cy="964.859" r="13.601" />
		<circle fill="#6236ff" cx="398.249" cy="964.859" r="13.601" />
		<circle opacity=".1" cx="398.249" cy="964.859" r="9.617" />
		<circle opacity=".11" cx="398.249" cy="964.859" r="13.601" />
		<circle fill="#6236ff" cx="631.497" cy="964.859" r="13.601" />
		<path fill="#6236ff"
			d="M519.582 851.258l32.785-74.458 51.983-118.058 12.005-27.264-2.662 1.527h107.472l-2.973-3.902-27.579 74.168-43.996 118.317-10.15 27.295 2.973-2.263H516.922c-3.967 0-3.974 6.165 0 6.165H639.44c1.454 0 2.494-.975 2.973-2.263l27.579-74.168 43.996-118.317 10.15-27.295c.71-1.91-1.113-3.902-2.973-3.902H613.693c-.989 0-2.239.566-2.662 1.527l-32.785 74.458-51.983 118.058-12.005 27.264c-1.583 3.597 3.727 6.738 5.324 3.111z" />
		<path fill="#6236ff"
			d="M638.552 948.176H516.92l3.083 3.083V850.936l-3.083 3.083h121.632l-3.083-3.083v100.323c0 3.967 6.165 3.974 6.165 0V850.936c0-1.666-1.412-3.083-3.083-3.083H516.919c-1.666 0-3.083 1.412-3.083 3.083v100.323c0 1.666 1.412 3.083 3.083 3.083h121.632c3.968-.001 3.975-6.166.001-6.166z" />
		<path fill="#6236ff"
			d="M638.552 949.409H371.763c-3.967 0-3.974 6.165 0 6.165H638.552c3.967 0 3.974-6.165 0-6.165zM579.851 700.897H310.159c-2.396 0-3.762 2.602-2.662 4.639l68.941 127.621 9.779 18.102c.511.946 1.604 1.527 2.662 1.527H637.32c1.474 0 2.47-.98 2.973-2.263l49.997-127.682 7.064-18.04c.746-1.904-1.141-3.902-2.973-3.902h-100.17c-4.787-.002-9.574-.002-14.36-.002-3.967 0-3.974 6.165 0 6.165H694.38l-2.973-3.902-49.997 127.682-7.064 18.04 2.973-2.263H388.878l2.662 1.527-68.941-127.621-9.779-18.102-2.662 4.639H579.85c3.968.001 3.975-6.165.001-6.165z" />
		<path fill="#6236ff"
			d="M343.292 705.147l68.941 127.621 9.779 18.102c1.415 2.619 5.409.287 3.993-2.334l-68.941-127.621-9.779-18.102c-1.415-2.619-5.408-.287-3.993 2.334zM389.749 705.147l68.941 127.621 9.779 18.102c1.415 2.619 5.409.287 3.993-2.334l-68.941-127.621-9.779-18.102c-1.416-2.619-5.409-.287-3.993 2.334zM429.108 705.147l68.941 127.621 9.779 18.102c1.415 2.619 5.409.287 3.993-2.334L442.88 720.915l-9.779-18.102c-1.415-2.619-5.409-.287-3.993 2.334zM668.86 702.813l-68.941 127.621-9.779 18.102c-1.414 2.618 2.576 4.956 3.993 2.334l68.941-127.621 9.779-18.102c1.414-2.618-2.577-4.956-3.993-2.334zM623.38 702.813l-68.941 127.621-9.779 18.102c-1.414 2.618 2.576 4.956 3.993 2.334l68.941-127.621 9.779-18.102c1.414-2.618-2.577-4.956-3.993-2.334z" />
		<path fill="#6236ff"
			d="M522.696 702.813l-68.941 127.621-9.779 18.102c-1.414 2.618 2.576 4.956 3.993 2.334l68.941-127.621 9.779-18.102c1.414-2.618-2.577-4.956-3.993-2.334zM534.117 703.98v145.722c0 2.975 4.624 2.98 4.624 0V721.901 703.98c0-2.975-4.624-2.98-4.624 0z" />
		<path fill="#6236ff"
			d="M356.58 790.353h130.86c16.498 0 33.057-.418 49.551 0 17.427.442 34.891 1.933 52.295 2.903l69.229 3.86c1.982.11 1.976-2.973 0-3.083-40.309-2.247-80.687-5.501-121.037-6.748-41.738-1.29-83.712-.015-125.469-.015H356.58c-1.984 0-1.987 3.083 0 3.083zM337.762 756.619h143.873c18.424 0 36.912-.455 55.332 0 19.249.476 38.541 2.135 57.765 3.207l75.876 4.23c1.982.11 1.976-2.973 0-3.083-44.323-2.471-88.719-6.032-133.088-7.42-15.161-.474-30.408-.017-45.575-.017H337.762c-1.984 0-1.987 3.083 0 3.083z" />
		<circle fill="#6236ff" cx="631.497" cy="964.859" r="13.601" />
		<circle opacity=".1" cx="631.497" cy="964.859" r="9.617" />
		<circle fill="#6236ff" cx="449.573" cy="964.859" r="13.601" />
		<circle fill="#6236ff" cx="449.573" cy="964.859" r="13.601" />
		<circle opacity=".1" cx="449.573" cy="964.859" r="9.617" />
		<path fill="#F4B99F"
			d="M735.52 956.314s-11.339 5.309-20.207 12.308c-1.184.935-.793 2.854.677 3.192 4.855 1.116 16.396.48 40.067-15.501a45.138 45.138 0 00-20.537.001z" />
		<path fill="#0E538C"
			d="M809.264 956.314c.531 2.602.896 6.635-1.132 10.258-2.233 3.99-5.962 4.973-16.601 8.422-15.05 4.879-18.997 6.295-25.383 6.205-3.796-.054-10.259-.304-11.282-3.385-.825-2.485 2.081-6.276 6.957-9.401 8.01-4.033 18.893-8.066 26.904-12.099" />
		<path fill="#F4B99F"
			d="M788.726 956.314s-11.339 5.309-20.207 12.308c-1.184.935-.793 2.854.677 3.192 4.855 1.116 16.396.48 40.067-15.501a44.807 44.807 0 00-9.261-1.183 44.855 44.855 0 00-11.276 1.184zM821.027 436.3c-9.897-1.146-18.646 6.442-18.912 16.401l-2.958 110.832c-.114 4.266 3.936 8.052 9.273 8.67 5.512.638 10.424-2.324 11.072-6.677l16.356-109.873c1.41-9.483-5.308-18.25-14.831-19.353z" />
		<path fill="#F4B99F"
			d="M803.348 554.818l-82.184 71.987 7.307 9.671 87.61-65.323c3.11-2.319 2.826-7.927-.633-12.507-3.57-4.724-9.085-6.469-12.1-3.828z" />
		<path fill="#F4B99F"
			d="M721.573 624.77s-15.202-.754-24.886 10.963c-9.684 11.716 4.873 11.596 12.443 3.586 7.57-8.01 15.16 5.356 20.726-3.586 0 0 2.4-6.527-8.283-10.963z" />
		<path fill="#E5A691"
			d="M742.455 405.43a71.256 71.256 0 0012.622-1.41c4.833-.983 9.284-1.888 13.634-4.401 2.553-1.475 8.677-5.587 12.787-15.222a35.18 35.18 0 01-4.11 10.075c-1.407 2.327-6.128 9.513-15.208 13.543-3.037 1.348-5.991 2.659-9.988 2.22-5.019-.552-8.408-3.503-9.737-4.805z" />
		<path fill="#F4B99F"
			d="M789.812 345.159c.236-2.107 2.275-23.835-15.822-37.173-2.814-2.074-16.03-11.265-33.043-8.502-3.326.54-10.59 1.838-17.199 7.101-21.139 16.832-11.782 55.389-10.188 61.469 3.593 13.695 9.362 21.01 11.007 23.009 3.445 4.183 14.033 17.042 27.757 15.833 5.549-.489 9.378-3.081 13.937-6.167 11.493-7.78 16.597-18.465 18.486-22.525 6.205-13.332 5.988-25.619 5.065-33.045z" />
		<path fill="#F4B99F"
			d="M788.181 341.64c3.644-1.649 10.162 2.817 11.211 8.939 1.497 8.739-8.92 16.35-12.693 14.373-4.491-2.353-4.236-20.725 1.482-23.312z" />
		<path fill="#0E538C"
			d="M733.639 326.593s16.198 23.571 51.187 26.688c0 0-1.664-10.046 6.735-11.727 0 0 7.291-45.09-40.704-46.71 0 0-48.319-2.592-42.812 46.651.001.001 10.692-1.619 25.594-14.902z" />
		<path fill="#0E538C"
			d="M777.053 352.346s15.561 25.079 6.989 49.228c0 0 8.483-27.462 2.5-47.867s-9.489-1.361-9.489-1.361z" />
	</g>
	<path xmlns="http://www.w3.org/2000/svg" fill="#6236ff"
		d="M429.824 558.008l6.148-16.11 6.149 16.11 11.243 4.661-11.243 4.662-6.149 16.109-6.148-16.109-11.243-4.662zM584.315 420.439l2.854-7.478 2.854 7.478 5.219 2.163-5.219 2.164-2.854 7.478-2.854-7.478-5.219-2.164zM898.401 642.817l2.854-7.478 2.854 7.478 5.219 2.164-5.219 2.164-2.854 7.478-2.854-7.478-5.219-2.164zM313.619 836.169l1.565-4.099 1.564 4.099 2.861 1.186-2.861 1.187-1.564 4.099-1.565-4.099-2.861-1.187zM304.313 622.64l2.798-7.331 2.798 7.331 5.116 2.121-5.116 2.121-2.798 7.331-2.798-7.331-5.116-2.121zM587.044 560.548l2.798-7.331 2.798 7.331 5.116 2.121-5.116 2.122-2.798 7.33-2.798-7.33-5.116-2.122zM895.554 427.922l5.701-14.939 5.702 14.939 10.425 4.322-10.425 4.323-5.702 14.938-5.701-14.938-10.425-4.323zM931.006 544.34l2.502-6.555 2.502 6.555 4.575 1.896-4.575 1.897-2.502 6.555-2.502-6.555-4.574-1.897z" />
</svg>