<svg xmlns="http://www.w3.org/2000/svg" xmlns:xlink="http://www.w3.org/1999/xlink" version="1.1" id="Layer_1" x="0px" y="0px" viewBox="0 0 2684 2000" style="enable-background:new 0 0 2684 2000;" xml:space="preserve">
<style type="text/css">
	.st0{fill:#CCE9FB;}
	.st1{fill:#FFFFFF;}
	.st2{fill:#0E538D;}
	.st3{fill:#FFBE55;}
	.st4{fill:#2B94F3;}
	.st5{fill:#FFEB57;}
	.st6{fill:none;stroke:#FFFFFF;stroke-width:3;stroke-linecap:round;stroke-miterlimit:10;}
</style>
<g>
	
		<ellipse transform="matrix(0.7071 -0.7071 0.7071 0.7071 -63.4757 1706.4683)" class="st0" cx="2028.2" cy="929.9" rx="129.8" ry="129.8"/>
	<rect x="1969.8" y="944.8" class="st1" width="26" height="44.4"/>
	<rect x="2015.1" y="900.4" class="st1" width="26" height="88.9"/>
	<rect x="2060.5" y="874.3" class="st1" width="26" height="114.9"/>
</g>
<g>
	
		<ellipse transform="matrix(0.7071 -0.7071 0.7071 0.7071 -736.1091 1124.2274)" class="st0" cx="989" cy="1450.7" rx="129.8" ry="129.8"/>
	<circle class="st1" cx="989" cy="1450.7" r="70.9"/>
	<path class="st0" d="M989,1485.8c-19.3,0-35.1-15.7-35.1-35.1c0-19.3,15.7-35.1,35.1-35.1c19.3,0,35.1,15.7,35.1,35.1   C1024.1,1470,1008.4,1485.8,989,1485.8z"/>
	<path class="st1" d="M1009.5,1391.2l-6.2-25.2c-0.5-1.9-2.2-3.2-4.1-3.2h-9h-2.4h-9c-1.9,0-3.6,1.3-4.1,3.2l-6.2,25.2l20.5-1   L1009.5,1391.2z"/>
	<path class="st1" d="M961.2,1394.3l-22.2-13.4c-1.7-1-3.8-0.7-5.2,0.6l-6.4,6.4l-1.7,1.7l-6.4,6.4c-1.4,1.4-1.6,3.5-0.6,5.2   l13.4,22.2l13.8-15.2L961.2,1394.3z"/>
	<path class="st1" d="M929.2,1430.7l-25.2,6.2c-1.9,0.5-3.2,2.2-3.2,4.1v9v2.4v9c0,1.9,1.3,3.6,3.2,4.1l25.2,6.2l-1-20.5   L929.2,1430.7z"/>
	<path class="st1" d="M932.3,1479l-13.4,22.2c-1,1.7-0.7,3.8,0.6,5.2l6.4,6.4l1.7,1.7l6.4,6.4c1.4,1.4,3.5,1.6,5.2,0.6l22.2-13.4   l-15.2-13.8L932.3,1479z"/>
	<path class="st1" d="M968.7,1510.9l6.2,25.2c0.5,1.9,2.2,3.2,4.1,3.2h9h2.4h9c1.9,0,3.6-1.3,4.1-3.2l6.2-25.2l-20.5,1L968.7,1510.9   z"/>
	<path class="st1" d="M1017,1507.8l22.2,13.4c1.7,1,3.8,0.7,5.2-0.6l6.4-6.4l1.7-1.7l6.4-6.4c1.4-1.4,1.6-3.5,0.6-5.2l-13.4-22.2   l-13.8,15.2L1017,1507.8z"/>
	<path class="st1" d="M1049,1471.5l25.2-6.2c1.9-0.5,3.2-2.2,3.2-4.1v-9v-2.4v-9c0-1.9-1.3-3.6-3.2-4.1l-25.2-6.2l1,20.5   L1049,1471.5z"/>
	<path class="st1" d="M1045.8,1423.2l13.4-22.2c1-1.7,0.7-3.8-0.6-5.2l-6.4-6.4l-1.7-1.7l-6.4-6.4c-1.4-1.4-3.5-1.6-5.2-0.6   l-22.2,13.4l15.2,13.8L1045.8,1423.2z"/>
</g>
<g>
	
		<ellipse transform="matrix(0.7071 -0.7071 0.7071 0.7071 -443.4347 1816.2058)" class="st0" cx="1970.6" cy="1443.4" rx="129.8" ry="129.8"/>
	<path class="st1" d="M2001.3,1419.9c0,17-13.7,30.7-30.7,30.7c-17,0-30.7-13.7-30.7-30.7c0-17,13.7-30.7,30.7-30.7   C1987.6,1389.3,2001.3,1403,2001.3,1419.9z"/>
	<path class="st1" d="M2027.2,1504.3H1914c5.2-26.5,28.6-46.5,56.6-46.5C1998.7,1457.8,2022,1477.8,2027.2,1504.3z"/>
</g>
<ellipse transform="matrix(0.7071 -0.7071 0.7071 0.7071 -425.4751 907.3222)" class="st0" cx="882.5" cy="967.3" rx="129.8" ry="129.8"/>
<polygon class="st1" points="882.5,897.9 902.7,938.9 948,945.4 915.2,977.4 923,1022.4 882.5,1001.2 842,1022.4 849.7,977.4   817,945.4 862.3,938.9 "/>
<circle class="st2" cx="1470.2" cy="1592.8" r="150.1"/>
<path class="st3" d="M1809.8,1080.1c0,88.9-34.2,169.7-90.3,230.2c-28.9,31.1-51.8,66.9-67.4,105.5c-13,32.2-21.1,66.3-23.4,101.4  c-0.5,7-0.7,14-0.7,21.1h-313.6c0-7-0.2-14.1-0.7-21.1c-4.7-75.7-34.8-148.2-87.5-203.2c-54-56.7-88.8-132.1-93.2-215.4  c-0.7-11.1-0.7-22.2-0.2-33.5c7.7-179.5,158-323.3,337.6-323.7c39.3-0.1,77.2,6.5,112.3,18.9  C1714.9,806.4,1809.8,932.2,1809.8,1080.1z"/>
<rect x="1317" y="1539.1" class="st2" width="309.9" height="91.2"/>
<path class="st4" d="M1628.3,1571.1h-314.6c-14.8,0-27-12.1-27-27l0,0c0-14.8,12.1-27,27-27h314.6c14.8,0,27,12.1,27,27l0,0  C1655.2,1559,1643.1,1571.1,1628.3,1571.1z"/>
<path class="st4" d="M1628.3,1657.2h-314.6c-14.8,0-27-12.1-27-27l0,0c0-14.8,12.1-27,27-27h314.6c14.8,0,27,12.1,27,27l0,0  C1655.2,1645,1643.1,1657.2,1628.3,1657.2z"/>
<path class="st5" d="M1687.7,983.3c0,159.8-129.6,289.3-289.4,289.3c-118.8,0-220.9-71.6-265.4-173.9c-0.7-11.1-0.7-22.2-0.2-33.5  c7.7-179.5,158-323.3,337.6-323.7c39.3-0.1,77.2,6.5,112.3,18.9C1646.8,813.4,1687.7,893.6,1687.7,983.3z"/>
<polygon class="st3" points="1456.1,644 1360.2,433 1571.1,361.1 "/>
<polygon class="st3" points="1249.9,701.5 1110.8,596.1 1067.7,730.3 "/>
<polygon class="st3" points="1679.5,666.2 1847.3,606.6 1794.6,525 "/>
<path class="st6" d="M1332.6,1075c0,0,7.1,115.4,148.4,115.4s178.9-131.6,91.9-136.6c-68.2-3.9-96.6,68.3-96.6,101.3  c0,33-1,302.3-1,302.3"/>
<g>
	<g>
		<path class="st3" d="M599.1,706.1c0,19.3-3.5,32.8-10.5,40.3c-7,7.5-18.5,11.3-34.3,11.3h-31c-16.4,0-28.5-4-36.1-11.9    c-7.7-7.9-11.5-21.2-11.5-39.7V482.2c0-19.3,3.4-32.8,10.3-40.3c6.9-7.5,18.3-11.3,34.1-11.3h31c16.4,0,28.5,3.9,36.3,11.7    c7.8,7.8,11.7,21.1,11.7,39.9V706.1z M546.3,482.2c0-3.4-0.9-6-2.8-7.7c-1.9-1.7-3.8-2.6-6-2.6c-2.1,0-4.2,0.9-6.4,2.6    c-2.1,1.7-3.2,4.3-3.2,7.7v223.9c0,3.2,1,5.6,3,7.3c2,1.7,4,2.6,6.2,2.6c2.1,0,4.2-0.9,6.2-2.6c2-1.7,3-4.2,3-7.3V482.2z"/>
		<path class="st3" d="M616.9,696.6c0-10.1,1.6-19.5,5-28.4c3.3-8.9,7.5-17.5,12.5-26c5-8.5,10.5-16.9,16.3-25.2    c5.8-8.3,11.2-17,16.3-26c5-9,9.2-18.4,12.5-28.2c3.3-9.8,5-20.4,5-31.8v-49.6c0-3.2-0.9-5.6-2.6-7.3c-1.7-1.7-3.9-2.6-6.6-2.6    c-2.4,0-4.4,0.9-6.2,2.6c-1.7,1.7-2.6,4.2-2.6,7.3v60.4h-48.8v-60c0-9.3,0.7-17.1,2-23.6c1.3-6.5,3.6-11.8,6.8-15.9    c3.2-4.1,7.5-7.1,12.9-8.9c5.4-1.8,12.2-2.8,20.4-2.8h31.8c15.9,0,27.3,3.8,34.3,11.3c7,7.5,10.5,20.8,10.5,39.9v65.1    c0,11.1-1.6,21.6-4.8,31.4c-3.2,9.8-7.1,19.1-11.9,28c-4.8,8.9-10,17.5-15.7,25.8c-5.7,8.3-10.9,16.6-15.7,24.8    c-4.8,8.2-8.7,16.5-11.9,24.8c-3.2,8.3-4.8,17-4.8,26v8.7h68.7v39.7H616.9V696.6z"/>
	</g>
	<g>
		<path class="st3" d="M525.1,352.3c0-2.8-0.8-5.3-2.4-7.7c-1.6-2.4-3.6-4.7-6-7c-2.4-2.3-4.9-4.6-7.7-7c-2.8-2.4-5.3-4.9-7.7-7.6    c-2.4-2.7-4.4-5.6-6-8.7c-1.6-3.1-2.4-6.6-2.4-10.6v-26.5c0-8.3,1.5-14.1,4.6-17.4c3.1-3.3,8-4.9,15-4.9h15.6    c7.3,0,12.4,1.7,15.5,5.1c3.1,3.4,4.6,9.1,4.6,17.2v25.4h-23V277c0-1.4-0.4-2.4-1.1-3.2c-0.8-0.7-1.6-1.1-2.7-1.1    c-1.2,0-2.1,0.4-2.9,1.1c-0.8,0.8-1.1,1.8-1.1,3.2v22.5c0,2.7,0.8,5.1,2.3,7.3c1.6,2.2,3.5,4.3,5.9,6.4c2.4,2.1,4.9,4.2,7.6,6.4    c2.7,2.2,5.2,4.6,7.6,7.4c2.4,2.7,4.3,5.7,5.9,9c1.6,3.3,2.3,7.1,2.3,11.5v29.2c0,8.3-1.5,14.1-4.6,17.5c-3.1,3.3-8,5-15,5h-15.7    c-7.2,0-12.3-1.7-15.3-5.2c-3.1-3.5-4.6-9.2-4.6-17.3v-29.4h23.5v29.6c0,2.9,1.3,4.3,3.8,4.3c1.2,0,2.1-0.4,2.9-1.1    c0.7-0.7,1.1-1.8,1.1-3.2V352.3z"/>
		<path class="st3" d="M567.7,275.8h-13.5v-19H606v19h-13.5v121.8h-24.7V275.8z"/>
		<path class="st3" d="M656,397.6h-43.1V256.7H656v19h-18.5v40.7h16.8v19h-16.8v43.1H656V397.6z"/>
		<path class="st3" d="M721,324.2c0,4-0.4,7.4-1.1,10.1c-0.8,2.7-2,4.9-3.9,6.5c-1.8,1.6-4.4,2.8-7.6,3.5c-3.2,0.7-7.3,1-12.3,1    h-7.8v52.3h-24.6V256.7h36.3c7.2,0,12.4,1.7,15.8,5.1c3.4,3.4,5.1,9.2,5.1,17.4V324.2z M696.3,279.2c0-1.5-0.4-2.6-1.2-3.4    c-0.8-0.7-1.7-1.1-2.6-1.1h-4.2V327h4c0.9,0,1.8-0.4,2.7-1.1c0.9-0.7,1.3-1.8,1.3-3.2V279.2z"/>
	</g>
</g>
</svg>