<svg xmlns="http://www.w3.org/2000/svg" xmlns:xlink="http://www.w3.org/1999/xlink" version="1.1" id="Layer_1" x="0px" y="0px" viewBox="0 0 2684 2000" style="enable-background:new 0 0 2684 2000;" xml:space="preserve">
<style type="text/css">
	.st0{fill:#FFBE55;}
	.st1{opacity:0.3;fill:#2C93F7;}
	.st2{opacity:0.3;fill:#2993F2;}
	.st3{fill:#CCE9FF;}
	.st4{fill:#F3F3F3;}
	.st5{fill:#FEBE56;}
	.st6{opacity:0.25;fill:#FFD05D;}
	.st7{fill:#2993F2;}
	.st8{opacity:0.35;fill:#2993F2;}
	.st9{fill:#ECEFF1;}
	.st10{opacity:0.34;}
	.st11{fill:#094A73;}
	.st12{opacity:0.58;}
	.st13{opacity:0.33;}
	.st14{fill:#221D51;}
	.st15{opacity:0.24;fill:#2993F2;}
	.st16{fill:#FFFFFF;}
	.st17{fill:none;}
</style>
<path class="st0" d="M2222,1465c-61.8-473.6-418.3-836.9-849-836.9S585.8,991.4,524,1465H2222z"/>
<path class="st1" d="M2079.1,1434c-64-379.9-355.8-666.9-706.1-666.9s-642.2,287-706.1,666.9H2079.1z"/>
<path class="st2" d="M1862.9,1390c-59.8-245.5-256.5-425.6-489.9-425.6S943,1144.5,883.1,1390H1862.9z"/>
<g>
	<ellipse class="st3" cx="1201.9" cy="1382.5" rx="95" ry="108.8"/>
	<ellipse class="st3" cx="1562.4" cy="1405.2" rx="95" ry="108.8"/>
	<ellipse class="st3" cx="1836" cy="1293.6" rx="133.5" ry="152.9"/>
	<ellipse class="st3" cx="912.5" cy="1231.7" rx="114.2" ry="130.8"/>
	<ellipse class="st3" cx="1278.4" cy="1507.1" rx="76.9" ry="88.1"/>
	<ellipse class="st3" cx="1658.2" cy="1303.8" rx="89.9" ry="102.9"/>
	<ellipse class="st3" cx="1980.5" cy="1265.4" rx="90.9" ry="104.1"/>
	<ellipse class="st3" cx="761.2" cy="1251.2" rx="86.5" ry="99.1"/>
	<ellipse class="st3" cx="1415.5" cy="1420.8" rx="100.8" ry="115.5"/>
	<ellipse class="st3" cx="1055.3" cy="1288.1" rx="96.6" ry="110.7"/>
</g>
<g>
	<ellipse class="st4" cx="1035" cy="1400.2" rx="131.9" ry="151.1"/>
	<ellipse class="st4" cx="1635" cy="1423.2" rx="149" ry="170.7"/>
	<ellipse class="st4" cx="1951.4" cy="1475.6" rx="158.6" ry="181.7"/>
	<ellipse class="st4" cx="678.1" cy="1387.5" rx="158.6" ry="181.7"/>
	<ellipse class="st4" cx="1206.8" cy="1572.8" rx="122.7" ry="140.5"/>
	<ellipse class="st4" cx="1875.7" cy="1350.4" rx="124.8" ry="143"/>
	<ellipse class="st4" cx="2081.2" cy="1387.5" rx="145.3" ry="166.4"/>
	<ellipse class="st4" cx="1385.8" cy="1531.6" rx="140" ry="160.4"/>
	<ellipse class="st4" cx="855.2" cy="1333.3" rx="129" ry="147.8"/>
</g>
<polygon class="st5" points="1564.3,1438.6 1429.9,1438.6 1466.7,1030.9 1520.8,1030.9 "/>
<polygon class="st5" points="1441.9,1438.6 1306.9,1438.6 1343.7,1030.9 1397.7,1030.9 "/>
<polygon class="st5" points="1316.9,1438.6 1182.5,1438.6 1219.4,1030.9 1273.4,1030.9 "/>
<polygon class="st6" points="1246.5,1295.6 1222.1,1059 1269.9,1059 "/>
<polygon class="st6" points="1374.8,1429.5 1346.1,1040 1400.2,1040 "/>
<polygon class="st6" points="1497.9,1298 1467.2,1030.9 1521.2,1030.9 "/>
<g>
	<polygon class="st7" points="1425.8,1034.4 1324.4,1034.4 1329.5,978.7 1420.7,978.7  "/>
	<polygon class="st8" points="1417.3,1034.4 1392,1034.4 1393.7,978.7 1412.2,978.7  "/>
	<rect x="1317.9" y="1030.9" class="st7" width="113.3" height="11.1"/>
</g>
<path class="st9" d="M1375.5,500.3l-0.6,0c-0.2,0.2-0.5,0.3-0.7,0.5c-0.2-0.2-0.5-0.3-0.7-0.5l-0.6,0c-69,50.6-122,188.8-122,269.1  v100.1h0.1c2.2,75.9,56.5,136.6,123.3,136.6c66.8,0,121.1-60.7,123.3-136.6h0.1V769.4C1497.5,689.1,1444.5,550.9,1375.5,500.3z"/>
<path class="st7" d="M1374.2,688.6c38.5,0,74.5-7.4,104.9-20.3c-21.3-66.4-59.1-135.5-103.6-168l-0.6,0c-0.2,0.2-0.5,0.3-0.7,0.5  c-0.2-0.2-0.5-0.3-0.7-0.5l-0.6,0c-44.5,32.6-82.3,101.6-103.6,168C1299.7,681.2,1335.6,688.6,1374.2,688.6z"/>
<path class="st9" d="M1380.9,504.5c39.5,81.1,64.6,178.1,64.6,245.4v137.4h-0.1c-1.1,41.9-13,80.5-32.3,111.6  c47.8-18.2,82.6-69,84.3-129.4h0.1V769.4C1497.5,691.2,1447.3,558.1,1380.9,504.5z"/>
<g class="st10">
	<path class="st9" d="M1315.9,906.6L1315.9,906.6l-0.1-136c0-74,24.4-184.2,61.6-268.9c-0.6-0.5-1.3-1-1.9-1.4l-0.6,0   c-0.2,0.2-0.5,0.3-0.7,0.5c-0.2-0.2-0.5-0.3-0.7-0.5l-0.6,0c-6.8,5-13.5,10.9-19.9,17.4c-45.5,72.5-76.5,180.5-76.5,250.1v113.3   h0.1c1,40.3,13.5,76.8,33.4,104.3c7.3,5.1,15,9.4,23.2,12.7C1322.8,971.1,1316.6,939.9,1315.9,906.6z"/>
</g>
<g>
	<ellipse class="st11" cx="1374.2" cy="791.9" rx="64.5" ry="73.9"/>
</g>
<g class="st12">
	<path class="st9" d="M1377.5,746.2c-2.4,0.2-4.8,0.7-7.2,1.3c-2.3,0.6-4.6,1.4-6.8,2.4c-4.4,1.9-8.6,4.5-12.1,7.7   c-1.8,1.6-3.5,3.3-5,5.2c-0.8,0.9-1.5,1.9-2.2,2.9l-1,1.5c-0.3,0.5-0.7,1-1,1.5l-0.9,1.6c-0.3,0.5-0.6,1.1-0.8,1.6   c-0.6,1.1-1.1,2.2-1.6,3.3c-0.5,1.1-0.9,2.2-1.4,3.4l-1.2,3.4c0.3-1.2,0.5-2.4,0.9-3.6c0.4-1.2,0.7-2.4,1.1-3.5   c0.4-1.1,0.9-2.3,1.4-3.4c0.3-0.6,0.5-1.1,0.8-1.7l0.9-1.6c1.2-2.2,2.5-4.2,4.1-6.2c1.5-1.9,3.2-3.7,5.1-5.4   c3.7-3.3,8-5.9,12.6-7.6C1367.7,747.2,1372.6,746.1,1377.5,746.2z"/>
</g>
<g class="st13">
	<path class="st14" d="M1413.3,764.5c5.3,12,6.7,25.8,3.6,38.8c-1.5,6.5-4.2,12.7-7.9,18.3c-3.8,5.6-8.7,10.4-14.5,13.9   c-5.8,3.5-12.5,5.5-19.3,5.7c-6.8,0.2-13.5-1.3-19.5-4.4c-6-3-11.3-7.3-15.5-12.4c-4.2-5.1-7.4-11-9.6-17.2   c2.7,6,6.2,11.6,10.6,16.3c4.4,4.8,9.6,8.7,15.4,11.4c5.8,2.7,12.2,4,18.5,3.7c6.3-0.3,12.5-2.2,18-5.5c5.5-3.2,10.1-7.8,13.7-13   c3.7-5.2,6.3-11.2,8-17.4c1.7-6.2,2.4-12.7,2.1-19.2C1416.7,777.1,1415.4,770.7,1413.3,764.5z"/>
</g>
<g>
	<path class="st7" d="M1296.9,1059.3h-88.4V916.4c0-28,19.8-50.6,44.2-50.6l0,0c24.4,0,44.2,22.7,44.2,50.6V1059.3z"/>
	<path class="st8" d="M1257.7,866c5,8.2,8,18.2,8,29V1058h25.5V915.1C1291.2,891.4,1276.9,871.5,1257.7,866z"/>
	<rect x="1199.9" y="1048.5" class="st7" width="104.6" height="10.8"/>
	<rect x="1256.6" y="1048.5" class="st15" width="47.3" height="10.8"/>
	<g>
		<path class="st9" d="M1236.9,879.2c-0.4,0.2-0.8,0.5-1.1,0.9l-0.5,0.5l-0.5,0.5c-0.7,0.7-1.2,1.5-1.8,2.3c-0.6,0.8-1,1.6-1.5,2.5    c-0.5,0.8-0.8,1.7-1.3,2.6c-0.2,0.4-0.4,0.9-0.6,1.3l-0.5,1.3l-1,2.7c-0.5,1.8-1.1,3.7-1.6,5.5c-2,7.4-3.1,15-3.9,22.6    c-0.8,7.6-1.3,15.3-1.5,23c-0.3,7.7-0.2,15.4-0.3,23.1c-0.2-3.8-0.4-7.7-0.6-11.5l-0.1-2.9l0-2.9l0-5.8c-0.1-3.9,0.2-7.7,0.3-11.6    l0.1-2.9c0-1,0.2-1.9,0.2-2.9l0.5-5.8c0.1-1.9,0.5-3.8,0.8-5.7l0.4-2.9c0.1-1,0.3-1.9,0.5-2.9l1.1-5.7c0.5-1.9,1-3.7,1.5-5.6    c0.6-1.9,1.2-3.7,1.8-5.5l1.1-2.7l0.6-1.3c0.2-0.4,0.4-0.9,0.7-1.3c0.5-0.8,0.9-1.7,1.4-2.5c0.5-0.8,1-1.6,1.6-2.4    C1233.9,881.6,1235.2,880.1,1236.9,879.2z"/>
	</g>
</g>
<g>
	<path class="st7" d="M1542.3,1059.3h-88.4V916.4c0-28,19.8-50.6,44.2-50.6l0,0c24.4,0,44.2,22.7,44.2,50.6V1059.3z"/>
	<path class="st8" d="M1503.1,866c5,8.2,8,18.2,8,29V1058h25.5V915.1C1536.5,891.4,1522.3,871.5,1503.1,866z"/>
	<rect x="1445.2" y="1048.5" class="st7" width="104.6" height="10.8"/>
	<rect x="1501.9" y="1048.5" class="st15" width="47.3" height="10.8"/>
	<g>
		<path class="st9" d="M1482.3,879.2c-0.4,0.2-0.8,0.5-1.1,0.9l-0.5,0.5l-0.5,0.5c-0.7,0.7-1.2,1.5-1.8,2.3c-0.6,0.8-1,1.6-1.5,2.5    c-0.5,0.8-0.8,1.7-1.3,2.6c-0.2,0.4-0.4,0.9-0.6,1.3l-0.5,1.3l-1,2.7c-0.5,1.8-1.1,3.7-1.6,5.5c-2,7.4-3.1,15-3.9,22.6    c-0.8,7.6-1.3,15.3-1.5,23c-0.3,7.7-0.2,15.4-0.3,23.1c-0.2-3.8-0.4-7.7-0.6-11.5l-0.1-2.9l0-2.9l0-5.8c-0.1-3.9,0.2-7.7,0.3-11.6    l0.1-2.9c0-1,0.2-1.9,0.2-2.9l0.5-5.8c0.1-1.9,0.5-3.8,0.8-5.7l0.4-2.9c0.1-1,0.3-1.9,0.5-2.9l1.1-5.7c0.5-1.9,1-3.7,1.5-5.6    c0.6-1.9,1.2-3.7,1.8-5.5l1.1-2.7l0.6-1.3c0.2-0.4,0.4-0.9,0.7-1.3c0.5-0.8,0.9-1.7,1.4-2.5c0.5-0.8,1-1.6,1.6-2.4    C1479.2,881.6,1480.6,880.1,1482.3,879.2z"/>
	</g>
</g>
<g>
	<ellipse class="st16" cx="1035.5" cy="1557.2" rx="126.7" ry="145.1"/>
	<ellipse class="st16" cx="1637" cy="1464.9" rx="126.7" ry="145.1"/>
	<ellipse class="st16" cx="1987.8" cy="1521.9" rx="152.3" ry="174.5"/>
	<ellipse class="st16" cx="755.3" cy="1507.8" rx="152.3" ry="174.5"/>
	<ellipse class="st16" cx="1158.9" cy="1741.6" rx="117.8" ry="134.9"/>
	<ellipse class="st16" cx="1232" cy="1526.8" rx="140.3" ry="160.7"/>
	<ellipse class="st16" cx="1790.2" cy="1530" rx="119.9" ry="137.3"/>
	<ellipse class="st16" cx="2195.2" cy="1453" rx="161.6" ry="185.1"/>
	<ellipse class="st16" cx="542.5" cy="1438.6" rx="153.3" ry="175.6"/>
	<ellipse class="st16" cx="1444.1" cy="1590.7" rx="181.2" ry="207.5"/>
	<ellipse class="st16" cx="931.7" cy="1416.4" rx="103.8" ry="118.9"/>
</g>
<path class="st17" d="M2217.8,1478c8.1-53,12.3-107.5,12.3-163.1c0-522-369.4-945.2-825.1-945.2s-825.1,423.2-825.1,945.2  c0,55.6,4.2,110.1,12.3,163.1H2217.8z"/>
<g>
	<g>
		<path class="st0" d="M549.3,704.1c0,19.3-3.5,32.8-10.5,40.3c-7,7.5-18.5,11.3-34.3,11.3h-31c-16.4,0-28.5-4-36.1-11.9    c-7.7-7.9-11.5-21.2-11.5-39.7V480.2c0-19.3,3.4-32.8,10.3-40.3c6.9-7.5,18.3-11.3,34.1-11.3h31c16.4,0,28.5,3.9,36.3,11.7    c7.8,7.8,11.7,21.1,11.7,39.9V704.1z M496.5,480.2c0-3.4-0.9-6-2.8-7.7c-1.9-1.7-3.8-2.6-6-2.6c-2.1,0-4.2,0.9-6.4,2.6    c-2.1,1.7-3.2,4.3-3.2,7.7v223.9c0,3.2,1,5.6,3,7.3c2,1.7,4,2.6,6.2,2.6c2.1,0,4.2-0.9,6.2-2.6c2-1.7,3-4.2,3-7.3V480.2z"/>
		<path class="st0" d="M621.9,531.8h-52.8v-51.6c0-18.8,3.9-32.1,11.7-39.9c7.8-7.8,19.9-11.7,36.3-11.7h27    c16.4,0,28.5,3.9,36.3,11.7c7.8,7.8,11.7,21.1,11.7,39.9v55.6c0,16.4-2.5,28.5-7.3,36.1c-4.9,7.7-12.9,12.6-24,14.7    c11.1,1.9,19.1,6.7,24,14.5c4.9,7.8,7.3,19.8,7.3,35.9v67.1c0,18.8-3.9,32.1-11.7,39.9c-7.8,7.8-19.9,11.7-36.3,11.7h-27    c-16.4,0-28.5-3.9-36.3-11.7c-7.8-7.8-11.7-21.1-11.7-39.9V639h52.8v65.1c0,3.4,0.9,6,2.8,7.7c1.8,1.7,3.8,2.6,6,2.6    c2.1,0,4.1-0.9,6-2.6c1.8-1.7,2.8-4.3,2.8-7.7v-86.2c0-3.2-1-5.6-3-7.3c-2-1.7-4-2.6-6.2-2.6h-28.2v-42.1h29c2.1,0,4-0.9,5.8-2.8    c1.7-1.8,2.6-4.2,2.6-7.1v-75.8c0-3.4-0.9-6-2.8-7.7c-1.9-1.7-3.8-2.6-6-2.6c-2.1,0-4.1,0.9-6,2.6c-1.9,1.7-2.8,4.3-2.8,7.7V531.8    z"/>
	</g>
	<g>
		<path class="st0" d="M477.1,350.3c0-2.8-0.8-5.3-2.4-7.7c-1.6-2.4-3.6-4.7-6-7c-2.4-2.3-4.9-4.6-7.7-7c-2.8-2.4-5.3-4.9-7.7-7.6    c-2.4-2.7-4.4-5.6-6-8.7c-1.6-3.1-2.4-6.6-2.4-10.6v-26.5c0-8.3,1.5-14.1,4.6-17.4c3.1-3.3,8-4.9,15-4.9h15.6    c7.3,0,12.4,1.7,15.5,5.1c3.1,3.4,4.6,9.1,4.6,17.2v25.4h-23V275c0-1.4-0.4-2.4-1.1-3.2c-0.8-0.7-1.6-1.1-2.7-1.1    c-1.2,0-2.1,0.4-2.9,1.1c-0.8,0.8-1.1,1.8-1.1,3.2v22.5c0,2.7,0.8,5.1,2.3,7.3c1.6,2.2,3.5,4.3,5.9,6.4c2.4,2.1,4.9,4.2,7.6,6.4    c2.7,2.2,5.2,4.6,7.6,7.4c2.4,2.7,4.3,5.7,5.9,9c1.6,3.3,2.3,7.1,2.3,11.5v29.2c0,8.3-1.5,14.1-4.6,17.5c-3.1,3.3-8,5-15,5h-15.7    c-7.2,0-12.3-1.7-15.3-5.2c-3.1-3.5-4.6-9.2-4.6-17.3v-29.4h23.5v29.6c0,2.9,1.3,4.3,3.8,4.3c1.2,0,2.1-0.4,2.9-1.1    c0.7-0.7,1.1-1.8,1.1-3.2V350.3z"/>
		<path class="st0" d="M519.7,273.8h-13.5v-19H558v19h-13.5v121.8h-24.7V273.8z"/>
		<path class="st0" d="M608,395.6h-43.1V254.7H608v19h-18.5v40.7h16.8v19h-16.8v43.1H608V395.6z"/>
		<path class="st0" d="M673,322.2c0,4-0.4,7.4-1.1,10.1c-0.8,2.7-2,4.9-3.9,6.5c-1.8,1.6-4.4,2.8-7.6,3.5c-3.2,0.7-7.3,1-12.3,1    h-7.8v52.3h-24.6V254.7h36.3c7.2,0,12.4,1.7,15.8,5.1c3.4,3.4,5.1,9.2,5.1,17.4V322.2z M648.3,277.2c0-1.5-0.4-2.6-1.2-3.4    c-0.8-0.7-1.7-1.1-2.6-1.1h-4.2V325h4c0.9,0,1.8-0.4,2.7-1.1c0.9-0.7,1.3-1.8,1.3-3.2V277.2z"/>
	</g>
</g>
</svg>