<svg xmlns="http://www.w3.org/2000/svg" xmlns:xlink="http://www.w3.org/1999/xlink" version="1.1" id="Layer_1" x="0px" y="0px" viewBox="0 0 2684 2000" style="enable-background:new 0 0 2684 2000;" xml:space="preserve">
<style type="text/css">
	.st0{fill:#FFBF54;}
	.st1{fill:#FFFFFF;}
	.st2{opacity:0.12;fill:none;stroke:#8C99DE;stroke-width:0.9687;stroke-miterlimit:10;}
	.st3{fill:#0A486F;}
	.st4{opacity:0.12;fill:none;stroke:#8C99DE;stroke-width:0.7913;stroke-miterlimit:10;}
	.st5{fill:#2894F1;}
	.st6{fill:#FFBE55;}
	.st7{opacity:0.12;fill:none;stroke:#8C99DE;stroke-width:4.8436;stroke-linecap:round;stroke-miterlimit:10;}
	.st8{fill:none;stroke:#FFBF54;stroke-miterlimit:10;}
	.st9{fill:none;stroke:#2894F1;stroke-miterlimit:10;}
	.st10{opacity:0.12;fill:#D3D3D3;}
	.st11{fill:#CCE9FB;}
</style>
<g>
	<g>
		<path class="st0" d="M2169.6,1720.2h-730.1c-4.5,0-8.2-3.7-8.2-8.2v-173.5c0-4.5,3.7-8.2,8.2-8.2h730.1V1720.2z"/>
		<rect x="1469.5" y="1555.1" class="st1" width="700.1" height="140.4"/>
		<line class="st2" x1="2169.6" y1="1581.8" x2="1469.5" y2="1581.8"/>
		<line class="st2" x1="2169.6" y1="1610.8" x2="1469.5" y2="1610.8"/>
		<line class="st2" x1="2169.6" y1="1639.7" x2="1469.5" y2="1639.7"/>
		<line class="st2" x1="2169.6" y1="1668.6" x2="1469.5" y2="1668.6"/>
	</g>
	<g>
		<path class="st3" d="M2015.1,1532.4h-596.4c-3.7,0-6.7-3-6.7-6.7v-141.7c0-3.7,3-6.7,6.7-6.7h596.4V1532.4z"/>
		<rect x="1443.3" y="1397.5" class="st1" width="571.9" height="114.7"/>
		<line class="st4" x1="2015.1" y1="1419.3" x2="1443.3" y2="1419.3"/>
		<line class="st4" x1="2015.1" y1="1443" x2="1443.3" y2="1443"/>
		<line class="st4" x1="2015.1" y1="1466.6" x2="1443.3" y2="1466.6"/>
		<line class="st4" x1="2015.1" y1="1490.2" x2="1443.3" y2="1490.2"/>
	</g>
	<g>
		<path class="st5" d="M2121.1,1379.3h-596.4c-3.7,0-6.7-3-6.7-6.7v-118.7c0-3.7,3-6.7,6.7-6.7h596.4V1379.3z"/>
		<rect x="1549.2" y="1267.4" class="st1" width="571.9" height="91.7"/>
		<line class="st4" x1="2121.1" y1="1289.9" x2="1549.2" y2="1289.9"/>
		<line class="st4" x1="2121.1" y1="1313.6" x2="1549.2" y2="1313.6"/>
		<line class="st4" x1="2121.1" y1="1337.2" x2="1549.2" y2="1337.2"/>
	</g>
</g>
<path class="st6" d="M1355.4,1668.4H530.1L309.5,981.8c-3.5-10.9,4.6-22.1,16.1-22.1h789.8c7.3,0,13.9,4.7,16.1,11.7L1355.4,1668.4z  "/>
<polygon class="st1" points="1278.4,1616.5 573.8,1616.5 379.5,1011.5 1084,1011.5 "/>
<path class="st5" d="M1755.3,1668.4h-1220c-14.3,0-25.9,11.6-25.9,25.9l0,0c0,14.3,11.6,25.9,25.9,25.9h1220  c14.3,0,25.9-11.6,25.9-25.9l0,0C1781.2,1680,1769.6,1668.4,1755.3,1668.4z"/>
<path class="st3" d="M952.5,1668.4H535.3c-14.3,0-25.9,11.6-25.9,25.9l0,0c0,14.3,11.6,25.9,25.9,25.9h417.2  c14.3,0,25.9-11.6,25.9-25.9l0,0C978.4,1680,966.8,1668.4,952.5,1668.4z"/>
<line class="st7" x1="437.6" y1="1061.3" x2="961.1" y2="1061.3"/>
<line class="st8" x1="472.2" y1="1150.9" x2="714.6" y2="1150.9"/>
<g>
	<line class="st9" x1="491.9" y1="1250.4" x2="815.5" y2="1250.4"/>
	<line class="st9" x1="504.9" y1="1287.8" x2="873.6" y2="1287.8"/>
	<line class="st9" x1="516.9" y1="1325.2" x2="862.4" y2="1325.2"/>
	<line class="st9" x1="529.9" y1="1362.6" x2="924.6" y2="1362.6"/>
	<line class="st9" x1="542.9" y1="1400" x2="862.4" y2="1400"/>
	<line class="st9" x1="555.9" y1="1437.4" x2="906.2" y2="1437.4"/>
	<line class="st9" x1="567.9" y1="1474.8" x2="820.6" y2="1474.8"/>
	<line class="st9" x1="580.9" y1="1512.2" x2="890.9" y2="1512.2"/>
</g>
<polygon class="st10" points="1203.2,1512.2 1018.5,1512.2 909.1,1177.2 1093.9,1177.2 "/>
<path class="st5" d="M1041.7,1520.1L1041.7,1520.1c-27.8-27.8-27.8-72.9,0-100.7l433.1-433.1l100.7,100.7l-433.1,433.1  C1114.6,1547.9,1069.5,1547.9,1041.7,1520.1z"/>
<path class="st5" d="M1814.7,303c-242.4,0-439,196.5-439,439c0,242.4,196.5,439,439,439s439-196.5,439-439  C2253.7,499.5,2057.1,303,1814.7,303z M1814.7,1080.7C1627.6,1080.7,1476,929,1476,742c0-187.1,151.6-338.7,338.7-338.7  c187.1,0,338.7,151.6,338.7,338.7C2153.4,929,2001.7,1080.7,1814.7,1080.7z"/>
<path class="st6" d="M1575.2,981.5c-61.3-61.3-99.2-146-99.2-239.5c0-187.1,151.6-338.7,338.7-338.7c93.5,0,178.2,37.9,239.5,99.2  c23.6-23.6,47.9-46.7,70.6-71.2c-61.9-55.2-127.8-96.4-209.5-115.6c-79-18.5-158.5-14-236,8.6c-137.3,44.5-249,161-287.6,300  c-40.3,144.8,1.1,311.1,105,420.2c2.5,2.6,5,5.2,7.6,7.8L1575.2,981.5z"/>
<ellipse transform="matrix(0.7071 -0.7071 0.7071 0.7071 6.8439 1500.4966)" class="st11" cx="1814.7" cy="742" rx="338.7" ry="338.7"/>
<path class="st1" d="M2097.9,742c0,0-126.8,128.2-283.3,128.2S1531.4,742,1531.4,742s126.8-128.2,283.3-128.2S2097.9,742,2097.9,742  z"/>
<ellipse transform="matrix(0.7071 -0.7071 0.7071 0.7071 6.8439 1500.4965)" class="st0" cx="1814.7" cy="742" rx="128.2" ry="128.2"/>
<circle class="st3" cx="1814.7" cy="742" r="68.6"/>
<g>
	<g>
		<path class="st6" d="M777.9,779.1c0,19.3-3.5,32.8-10.5,40.3c-7,7.5-18.5,11.3-34.3,11.3h-31c-16.4,0-28.5-4-36.1-11.9    c-7.7-7.9-11.5-21.2-11.5-39.7V555.2c0-19.3,3.4-32.8,10.3-40.3c6.9-7.5,18.3-11.3,34.1-11.3h31c16.4,0,28.5,3.9,36.3,11.7    c7.8,7.8,11.7,21.1,11.7,39.9V779.1z M725.1,555.2c0-3.4-0.9-6-2.8-7.7c-1.9-1.7-3.8-2.6-6-2.6c-2.1,0-4.2,0.9-6.4,2.6    c-2.1,1.7-3.2,4.3-3.2,7.7v223.9c0,3.2,1,5.6,3,7.3c2,1.7,4,2.6,6.2,2.6c2.1,0,4.2-0.9,6.2-2.6c2-1.7,3-4.2,3-7.3V555.2z"/>
		<path class="st6" d="M827.2,586.1h-35.3v-32.6c7.1,0,13.5-1.4,19.1-4.2s10.2-6.4,13.9-10.9c3.7-4.5,6.5-9.6,8.3-15.3    c1.8-5.7,2.8-11.4,2.8-17.3h43.7v323.2h-52.4V586.1z"/>
	</g>
	<g>
		<path class="st6" d="M686.1,425.3c0-2.8-0.8-5.3-2.4-7.7c-1.6-2.4-3.6-4.7-6-7c-2.4-2.3-4.9-4.6-7.7-7c-2.8-2.4-5.3-4.9-7.7-7.6    c-2.4-2.7-4.4-5.6-6-8.7c-1.6-3.1-2.4-6.6-2.4-10.6v-26.5c0-8.3,1.5-14.1,4.6-17.4c3.1-3.3,8-4.9,15-4.9h15.6    c7.3,0,12.4,1.7,15.5,5.1c3.1,3.4,4.6,9.1,4.6,17.2v25.4h-23V350c0-1.4-0.4-2.4-1.1-3.2c-0.8-0.7-1.6-1.1-2.7-1.1    c-1.2,0-2.1,0.4-2.9,1.1c-0.8,0.8-1.1,1.8-1.1,3.2v22.5c0,2.7,0.8,5.1,2.3,7.3c1.6,2.2,3.5,4.3,5.9,6.4c2.4,2.1,4.9,4.2,7.6,6.4    c2.7,2.2,5.2,4.6,7.6,7.4c2.4,2.7,4.3,5.7,5.9,9c1.6,3.3,2.3,7.1,2.3,11.5v29.2c0,8.3-1.5,14.1-4.6,17.5c-3.1,3.3-8,5-15,5h-15.7    c-7.2,0-12.3-1.7-15.3-5.2c-3.1-3.5-4.6-9.2-4.6-17.3v-29.4h23.5v29.6c0,2.9,1.3,4.3,3.8,4.3c1.2,0,2.1-0.4,2.9-1.1    c0.7-0.7,1.1-1.8,1.1-3.2V425.3z"/>
		<path class="st6" d="M728.7,348.8h-13.5v-19H767v19h-13.5v121.8h-24.7V348.8z"/>
		<path class="st6" d="M817,470.6h-43.1V329.7H817v19h-18.5v40.7h16.8v19h-16.8v43.1H817V470.6z"/>
		<path class="st6" d="M882,397.2c0,4-0.4,7.4-1.1,10.1c-0.8,2.7-2,4.9-3.9,6.5c-1.8,1.6-4.4,2.8-7.6,3.5c-3.2,0.7-7.3,1-12.3,1    h-7.8v52.3h-24.6V329.7h36.3c7.2,0,12.4,1.7,15.8,5.1c3.4,3.4,5.1,9.2,5.1,17.4V397.2z M857.3,352.2c0-1.5-0.4-2.6-1.2-3.4    c-0.8-0.7-1.7-1.1-2.6-1.1h-4.2V400h4c0.9,0,1.8-0.4,2.7-1.1c0.9-0.7,1.3-1.8,1.3-3.2V352.2z"/>
	</g>
</g>
</svg>